<?xml version="1.0" standalone="no"?><!DOCTYPE svg PUBLIC "-//W3C//DTD SVG 1.1//EN" "http://www.w3.org/Graphics/SVG/1.1/DTD/svg11.dtd"><svg class="icon" width="200px" height="200.00px" viewBox="0 0 1024 1024" version="1.1" xmlns="http://www.w3.org/2000/svg"><path d="M747.817427 868.912863 420.647303 868.912863l0 0c-8.497925 48.863071-48.863071 84.979253-99.850622 84.979253-55.236515 0-101.975104-44.614108-101.975104-101.975104 0-40.365145 23.369295-74.356846 55.236515-91.352697l0 0L161.460581 150.838174C159.3361 138.091286 148.713693 127.46888 133.842324 127.46888L61.609959 127.46888l0 0C44.614108 127.46888 31.86722 114.721992 31.86722 97.726141s12.746888-29.742739 29.742739-29.742739l95.60166 0c27.618257 0 53.112033 21.244813 57.360996 46.738589l0 0 8.497925 44.614108 0 0 399.40249 0 363.286307 0c16.995851 0 29.742739 12.746888 29.742739 29.742739 0 2.124481 0 4.248963 0 6.373444l-84.979253 456.763485c0 0 0-2.124481 0 0-2.124481 12.746888-14.871369 23.369295-27.618257 23.369295l-282.556017 0L318.672199 679.834025l12.746888 74.356846 0 0c36.116183 4.248963 67.983402 27.618257 80.73029 59.485477l342.041494 0 0 0c14.871369-36.116183 50.987552-59.485477 93.477178-59.485477 55.236515 0 101.975104 44.614108 101.975104 101.975104 0 55.236515-44.614108 101.975104-101.975104 101.975104C796.680498 953.892116 756.315353 917.775934 747.817427 868.912863L747.817427 868.912863zM936.896266 220.946058l-316.547718 0-386.655602 0 16.995851 95.60166 365.410788 0 314.423237 0 14.871369-80.73029 0 0c0 0 0-2.124481 0-4.248963C949.643154 225.195021 943.26971 220.946058 936.896266 220.946058L936.896266 220.946058zM860.414938 620.348548c8.497925 0 14.871369-6.373444 16.995851-14.871369l44.614108-231.568465L616.099585 373.908714 263.435685 373.908714l0 0 44.614108 246.439834 314.423237 0L860.414938 620.348548 860.414938 620.348548zM320.79668 809.427386c-23.369295 0-42.489627 19.120332-42.489627 42.489627s19.120332 42.489627 42.489627 42.489627c23.369295 0 42.489627-19.120332 42.489627-42.489627S344.165975 809.427386 320.79668 809.427386zM847.66805 809.427386c-23.369295 0-42.489627 19.120332-42.489627 42.489627s19.120332 42.489627 42.489627 42.489627 42.489627-19.120332 42.489627-42.489627S871.037344 809.427386 847.66805 809.427386z" fill="#8a8a8a" /></svg>