<?xml version="1.0" standalone="no"?><!DOCTYPE svg PUBLIC "-//W3C//DTD SVG 1.1//EN" "http://www.w3.org/Graphics/SVG/1.1/DTD/svg11.dtd"><svg t="1534058251526" class="icon" style="" viewBox="0 0 1098 1024" version="1.1" xmlns="http://www.w3.org/2000/svg" p-id="8845" xmlns:xlink="http://www.w3.org/1999/xlink" width="214.453125" height="200"><defs><style type="text/css"></style></defs><path d="M822.784 803.328H284.672c-9.728 0-14.336-3.072-14.336-11.776V251.904c0-17.408 10.24-30.72 31.232-30.72h503.808c15.36 0 27.136 10.24 27.136 25.6v544.256c0 7.168-3.584 12.288-9.728 12.288z m-23.552-538.624H302.08v502.784h497.152v-502.784z m-233.472 198.656l-75.776-80.384c-0.512-1.024-0.512-2.048-1.024-2.56-4.096-4.096-8.704-5.632-13.824-5.12-5.12 0-10.24 1.536-13.824 5.12-1.024 0.512-0.512 2.048-1.024 2.56l-77.824 80.896c-7.168 7.168-8.192 17.408-2.56 23.04 7.168 7.168 16.384 6.656 23.552-1.024l72.192-72.192 70.656 71.68c7.168 7.168 17.408 8.192 23.04 1.536 5.12-7.168 3.584-15.872-3.584-23.552z m147.456-121.856c-1.536-1.024-7.168-1.536-9.216-1.536H627.712c-10.752 0-17.92 7.68-17.408 18.432 0.512 12.288 11.264 16.384 35.328 16.384l20.48 0.512-86.016 87.552c-7.168 7.168-10.24 17.408-3.072 24.576s18.432 5.12 25.6-2.048l87.04-91.648v43.52c0 8.192 7.68 15.872 16.896 15.36 10.752-0.512 15.36-7.168 15.36-15.36v-77.824-3.072c0-2.56-0.512-4.096-1.536-6.656-0.512-1.536-1.536-3.072-2.56-4.608-1.536-1.536-3.584-3.072-4.608-3.584z m-102.912 306.176H340.48v-30.72h269.824v30.72z m115.712 61.44H340.48v-29.184h385.024v29.184z" p-id="8846" fill="#1296db"></path><path d="M340.48 555.52h271.872v30.208H340.48z" p-id="8847" fill="#1296db"></path></svg>